# xmcd CD database file
#
# Track frame offsets:
#	150
#	11223
#	21892
#	34424
#	52297
#	63787
#	78188
#	92403
#	104732
#	116714
#	128685
#
# Disc length: 1878 seconds
#
# Revision: 0
# Processed by: cddbd v1.5.2PL0 Copyright (c) Steve Scherf et al.
# Submitted via: CDex 1.51
#
DISCID=9107540b
DTITLE=Geoffrey Fletcher - Point Me North
DYEAR=2011
DGENRE=Country
TTITLE0=Point Me North
TTITLE1=Crossroads
TTITLE2=Happy Birthday To Me
TTITLE3=Bring Me Down
TTITLE4=God Of The Mountains
TTITLE5=Song Of Granny
TTITLE6=I Understand
TTITLE7=Patches
TTITLE8=Never Neverland
TTITLE9=Let Me Be There
TTITLE10=Wildflowers
EXTD=YEAR: 2011
EXTT0=
EXTT1=
EXTT2=
EXTT3=
EXTT4=
EXTT5=
EXTT6=
EXTT7=
EXTT8=
EXTT9=
EXTT10=
PLAYORDER=
